<svg width="354" height="344" viewBox="0 0 354 344" fill="none" xmlns="http://www.w3.org/2000/svg">
<path d="M76.68 220.64H15.83V193.17L76.68 120.83H105.8V194.73H120.89V220.64H105.8V243.12H76.68V220.64ZM76.68 194.73V156.89L44.52 194.73H76.68Z" fill="#407BFF"/>
<path d="M131.3 182.51C131.3 159.65 135.413 143.65 143.64 134.51C151.867 125.37 164.403 120.803 181.25 120.81C189.337 120.81 195.98 121.81 201.18 123.81C205.904 125.512 210.229 128.163 213.89 131.6C216.976 134.546 219.589 137.949 221.64 141.69C223.669 145.596 225.198 149.742 226.19 154.03C228.451 163.191 229.579 172.594 229.55 182.03C229.55 203.843 225.86 219.807 218.48 229.92C211.1 240.033 198.39 245.093 180.35 245.1C170.23 245.1 162.053 243.487 155.82 240.26C149.537 236.981 144.244 232.082 140.49 226.07C137.59 221.643 135.333 215.587 133.72 207.9C132.045 199.542 131.234 191.034 131.3 182.51V182.51ZM164.44 182.59C164.44 197.923 165.79 208.38 168.49 213.96C171.19 219.54 175.113 222.343 180.26 222.37C181.893 222.388 183.514 222.082 185.028 221.469C186.542 220.857 187.919 219.949 189.08 218.8C191.573 216.42 193.407 212.66 194.58 207.52C195.753 202.38 196.34 194.38 196.34 183.52C196.34 167.56 194.987 156.83 192.28 151.33C189.573 145.83 185.513 143.083 180.1 143.09C174.58 143.09 170.58 145.893 168.1 151.5C165.62 157.107 164.4 167.47 164.44 182.59Z" fill="#407BFF"/>
<path d="M300.74 220.64H239.89V193.17L300.74 120.83H329.86V194.73H345V220.64H329.86V243.12H300.74V220.64ZM300.74 194.73V156.89L268.59 194.73H300.74Z" fill="#407BFF"/>
<g opacity="0.3">
<path d="M130 78.62C130 78.9903 129.89 79.3522 129.684 79.66C129.478 79.9677 129.186 80.2074 128.843 80.3486C128.501 80.4899 128.124 80.5263 127.761 80.4533C127.398 80.3804 127.065 80.2013 126.804 79.9387C126.543 79.6762 126.366 79.3421 126.295 78.9787C126.224 78.6153 126.262 78.239 126.405 77.8975C126.548 77.5559 126.79 77.2646 127.098 77.0603C127.407 76.856 127.77 76.748 128.14 76.75C128.385 76.75 128.628 76.7985 128.854 76.8926C129.08 76.9867 129.286 77.1246 129.459 77.2983C129.632 77.4721 129.768 77.6783 129.861 77.9052C129.954 78.132 130.001 78.3749 130 78.62V78.62Z" fill="#407BFF"/>
<path d="M1.96999 150.45C2.69901 150.45 3.28999 149.859 3.28999 149.13C3.28999 148.401 2.69901 147.81 1.96999 147.81C1.24098 147.81 0.649994 148.401 0.649994 149.13C0.649994 149.859 1.24098 150.45 1.96999 150.45Z" fill="#407BFF"/>
<path d="M220.05 343.22C221.094 343.22 221.94 342.374 221.94 341.33C221.94 340.286 221.094 339.44 220.05 339.44C219.006 339.44 218.16 340.286 218.16 341.33C218.16 342.374 219.006 343.22 220.05 343.22Z" fill="#407BFF"/>
<path d="M265.5 266.32C266.229 266.32 266.82 265.729 266.82 265C266.82 264.271 266.229 263.68 265.5 263.68C264.771 263.68 264.18 264.271 264.18 265C264.18 265.729 264.771 266.32 265.5 266.32Z" fill="#407BFF"/>
<path d="M353.17 28.62C353.17 28.8811 353.093 29.1363 352.948 29.3534C352.802 29.5705 352.596 29.7397 352.355 29.8396C352.114 29.9395 351.849 29.9656 351.592 29.9147C351.336 29.8637 351.101 29.738 350.917 29.5534C350.732 29.3688 350.606 29.1336 350.555 28.8776C350.504 28.6215 350.531 28.3561 350.63 28.1149C350.73 27.8737 350.9 27.6676 351.117 27.5225C351.334 27.3775 351.589 27.3 351.85 27.3C352.2 27.3 352.536 27.4391 352.783 27.6867C353.031 27.9342 353.17 28.27 353.17 28.62V28.62Z" fill="#407BFF"/>
<path d="M101.75 2.00005C101.75 2.26112 101.673 2.51633 101.528 2.73341C101.382 2.95048 101.176 3.11967 100.935 3.21957C100.694 3.31948 100.429 3.34563 100.172 3.29469C99.9164 3.24376 99.6812 3.11804 99.4966 2.93343C99.312 2.74883 99.1863 2.51363 99.1354 2.25758C99.0844 2.00152 99.1106 1.73611 99.2105 1.49491C99.3104 1.25371 99.4796 1.04756 99.6966 0.902512C99.9137 0.757468 100.169 0.680054 100.43 0.680054C100.779 0.68267 101.114 0.822582 101.36 1.06956C101.607 1.31655 101.747 1.65078 101.75 2.00005V2.00005Z" fill="#407BFF"/>
<path d="M206.7 71.26C207.429 71.26 208.02 70.669 208.02 69.94C208.02 69.211 207.429 68.62 206.7 68.62C205.971 68.62 205.38 69.211 205.38 69.94C205.38 70.669 205.971 71.26 206.7 71.26Z" fill="#407BFF"/>
</g>
<path d="M70.23 71.2701C82.3305 71.2701 92.14 61.4606 92.14 49.3601C92.14 37.2595 82.3305 27.4501 70.23 27.4501C58.1294 27.4501 48.32 37.2595 48.32 49.3601C48.32 61.4606 58.1294 71.2701 70.23 71.2701Z" fill="#407BFF"/>
<path opacity="0.7" d="M70.23 71.2701C82.3305 71.2701 92.14 61.4606 92.14 49.3601C92.14 37.2595 82.3305 27.4501 70.23 27.4501C58.1294 27.4501 48.32 37.2595 48.32 49.3601C48.32 61.4606 58.1294 71.2701 70.23 71.2701Z" fill="white"/>
<path opacity="0.2" d="M62.68 32.8301C59.6961 32.8209 56.742 33.4233 54 34.6001C50.63 38.304 48.6297 43.0501 48.3321 48.0488C48.0344 53.0475 49.4572 57.9975 52.3638 62.0751C55.2705 66.1528 59.4856 69.1124 64.3081 70.4614C69.1305 71.8105 74.2695 71.4677 78.87 69.4901V69.4901C81.7223 66.3467 83.6006 62.4428 84.2769 58.2524C84.9532 54.062 84.3983 49.7655 82.6796 45.8844C80.9609 42.0033 78.1524 38.7047 74.595 36.3892C71.0377 34.0736 66.8846 32.8407 62.64 32.8401L62.68 32.8301Z" fill="#407BFF"/>
<path opacity="0.2" d="M60.5 38.6201C60.5 39.0157 60.3827 39.4024 60.1629 39.7313C59.9432 40.0602 59.6308 40.3165 59.2654 40.4679C58.8999 40.6192 58.4978 40.6589 58.1098 40.5817C57.7219 40.5045 57.3655 40.314 57.0858 40.0343C56.8061 39.7546 56.6156 39.3983 56.5384 39.0103C56.4613 38.6223 56.5009 38.2202 56.6522 37.8547C56.8036 37.4893 57.06 37.1769 57.3889 36.9572C57.7178 36.7374 58.1044 36.6201 58.5 36.6201C59.0304 36.6201 59.5391 36.8308 59.9142 37.2059C60.2893 37.581 60.5 38.0897 60.5 38.6201Z" fill="#407BFF"/>
<path opacity="0.2" d="M84.06 36.6201C84.06 37.0157 83.9427 37.4024 83.7229 37.7313C83.5032 38.0602 83.1908 38.3165 82.8254 38.4679C82.4599 38.6192 82.0578 38.6589 81.6698 38.5817C81.2818 38.5045 80.9255 38.314 80.6458 38.0343C80.3661 37.7546 80.1756 37.3983 80.0984 37.0103C80.0213 36.6223 80.0609 36.2202 80.2122 35.8547C80.3636 35.4893 80.62 35.1769 80.9488 34.9572C81.2777 34.7374 81.6644 34.6201 82.06 34.6201C82.5904 34.6201 83.0991 34.8308 83.4742 35.2059C83.8493 35.581 84.06 36.0897 84.06 36.6201Z" fill="#407BFF"/>
<path opacity="0.2" d="M80.06 50.9001C80.06 51.5488 79.8676 52.183 79.5072 52.7224C79.1468 53.2618 78.6345 53.6822 78.0352 53.9304C77.4359 54.1787 76.7764 54.2436 76.1401 54.1171C75.5039 53.9905 74.9194 53.6781 74.4607 53.2194C74.002 52.7607 73.6896 52.1763 73.563 51.54C73.4365 50.9038 73.5014 50.2443 73.7497 49.6449C73.9979 49.0456 74.4183 48.5333 74.9577 48.1729C75.4971 47.8125 76.1313 47.6201 76.78 47.6201C77.6499 47.6201 78.4842 47.9657 79.0993 48.5808C79.7144 49.1959 80.06 50.0302 80.06 50.9001V50.9001Z" fill="#407BFF"/>
<path opacity="0.2" d="M69.64 60.2501C69.64 61.1164 69.3831 61.9632 68.9018 62.6835C68.4205 63.4038 67.7365 63.9652 66.9361 64.2967C66.1358 64.6282 65.2551 64.715 64.4055 64.546C63.5558 64.3769 62.7754 63.9598 62.1629 63.3472C61.5503 62.7347 61.1331 61.9542 60.9641 61.1046C60.7951 60.255 60.8819 59.3743 61.2134 58.574C61.5449 57.7736 62.1063 57.0896 62.8266 56.6083C63.5469 56.127 64.3937 55.8701 65.26 55.8701C66.4216 55.8701 67.5357 56.3316 68.3571 57.153C69.1785 57.9744 69.64 59.0885 69.64 60.2501V60.2501Z" fill="#407BFF"/>
<path d="M329.9 313.646C332.339 303.31 325.938 292.953 315.601 290.513C305.265 288.073 294.908 294.475 292.468 304.811C290.029 315.148 296.43 325.505 306.767 327.945C317.103 330.384 327.46 323.983 329.9 313.646Z" fill="#407BFF"/>
<path opacity="0.3" d="M329.9 313.646C332.339 303.31 325.938 292.953 315.601 290.513C305.265 288.073 294.908 294.475 292.468 304.811C290.029 315.148 296.43 325.505 306.767 327.945C317.103 330.384 327.46 323.983 329.9 313.646Z" fill="white"/>
<path opacity="0.4" d="M323.33 294.34C319.067 293.053 314.49 293.287 310.38 295.001C306.27 296.714 302.883 299.802 300.796 303.736C298.71 307.669 298.055 312.206 298.942 316.569C299.829 320.933 302.203 324.853 305.66 327.66C307.453 328.205 309.316 328.481 311.19 328.48C315.16 328.479 319.032 327.25 322.276 324.96C325.519 322.671 327.974 319.434 329.304 315.693C330.634 311.952 330.774 307.892 329.705 304.069C328.635 300.246 326.408 296.847 323.33 294.34V294.34Z" fill="#407BFF"/>
<path d="M292.83 315C272.3 324.66 287.61 332.11 316.54 321.71C343.33 312.08 353.54 299.94 329.54 303.71C330.83 308.76 297.28 321.83 292.83 315Z" fill="#407BFF"/>
<path opacity="0.2" d="M323.1 120.83C296.21 139 261.4 163 251.79 220.64H249.74C259.09 163.64 292.63 139.07 319.53 120.83H323.1Z" fill="black"/>
<path d="M184 301.27C167 301.27 150.19 293.6 142 281.08C136.95 273.34 131.08 257.13 148.56 235.5L150.11 236.76C137.75 252.06 135.47 267.41 143.68 279.99C153.68 295.29 177.27 302.99 197.41 297.51C218.04 291.9 230.56 273.96 231.77 248.29C235.9 160.48 282.55 133.43 316.61 113.68C337.78 101.41 353.07 92.55 349.71 73.84C349.24 71.25 348.21 69.46 346.54 68.36C342.19 65.49 333.69 67.48 323.85 69.77C304.54 74.27 278.1 80.43 262.35 53.64L264.08 52.64C279.08 78.17 303.65 72.44 323.4 67.84C333.69 65.45 342.57 63.38 347.64 66.71C349.79 68.12 351.11 70.35 351.64 73.51C355.25 93.59 338.64 103.23 317.59 115.43C283.92 134.95 237.82 161.68 233.74 248.43C232.48 275.03 219.42 293.64 197.9 299.49C193.366 300.697 188.692 301.296 184 301.27Z" fill="#407BFF"/>
<path opacity="0.2" d="M184 301.27C167 301.27 150.19 293.6 142 281.08C136.95 273.34 131.08 257.13 148.56 235.5L150.11 236.76C137.75 252.06 135.47 267.41 143.68 279.99C153.68 295.29 177.27 302.99 197.41 297.51C218.04 291.9 230.56 273.96 231.77 248.29C235.9 160.48 282.55 133.43 316.61 113.68C337.78 101.41 353.07 92.55 349.71 73.84C349.24 71.25 348.21 69.46 346.54 68.36C342.19 65.49 333.69 67.48 323.85 69.77C304.54 74.27 278.1 80.43 262.35 53.64L264.08 52.64C279.08 78.17 303.65 72.44 323.4 67.84C333.69 65.45 342.57 63.38 347.64 66.71C349.79 68.12 351.11 70.35 351.64 73.51C355.25 93.59 338.64 103.23 317.59 115.43C283.92 134.95 237.82 161.68 233.74 248.43C232.48 275.03 219.42 293.64 197.9 299.49C193.366 300.697 188.692 301.296 184 301.27Z" fill="white"/>
<path d="M241.76 30C246.368 30.0266 250.945 30.7446 255.34 32.13C255.34 32.13 266.34 50.9 267.64 55.2C267.18 59.44 260.03 66.39 260.03 66.39L241.76 30Z" fill="#407BFF"/>
<path opacity="0.3" d="M241.76 30C246.368 30.0266 250.945 30.7446 255.34 32.13C255.34 32.13 266.34 50.9 267.64 55.2C267.18 59.44 260.03 66.39 260.03 66.39L241.76 30Z" fill="white"/>
<path d="M274.34 121.13C270.104 115.95 266.241 110.477 262.78 104.75C261.94 103.303 261.143 101.83 260.39 100.33C259.96 99.48 259.55 98.63 259.15 97.77C258.625 96.9332 258.218 96.028 257.94 95.08C256.74 82.41 261.08 73.08 256.94 62.91L240.46 69.35C240.46 69.35 241.86 87.47 245.06 98.35C247.06 105.08 251.54 110.9 255.87 116.29C257.22 117.97 258.52 119.7 259.87 121.39C261.22 123.08 262.58 124.45 263.87 126.04C265.82 128.45 266.46 130.76 264.99 133.6L264.74 134.05C264.32 134.79 266.28 135.63 267.52 134.05C269.52 131.47 269.24 131.63 270.98 129.43C272.04 128.1 273.25 126.65 274.3 125.43C274.806 124.83 275.088 124.072 275.095 123.287C275.102 122.502 274.835 121.739 274.34 121.13V121.13Z" fill="#407BFF"/>
<path opacity="0.7" d="M274.34 121.13C270.104 115.95 266.241 110.477 262.78 104.75C261.94 103.303 261.143 101.83 260.39 100.33C259.96 99.48 259.55 98.63 259.15 97.77C258.625 96.9332 258.218 96.028 257.94 95.08C256.74 82.41 261.08 73.08 256.94 62.91L240.46 69.35C240.46 69.35 241.86 87.47 245.06 98.35C247.06 105.08 251.54 110.9 255.87 116.29C257.22 117.97 258.52 119.7 259.87 121.39C261.22 123.08 262.58 124.45 263.87 126.04C265.82 128.45 266.46 130.76 264.99 133.6L264.74 134.05C264.32 134.79 266.28 135.63 267.52 134.05C269.52 131.47 269.24 131.63 270.98 129.43C272.04 128.1 273.25 126.65 274.3 125.43C274.806 124.83 275.088 124.072 275.095 123.287C275.102 122.502 274.835 121.739 274.34 121.13V121.13Z" fill="white"/>
<path opacity="0.3" d="M270.31 115.92C267.695 118.723 264.792 121.244 261.65 123.44C262.08 123.92 262.5 124.44 262.93 124.9C266.076 122.775 268.933 120.25 271.43 117.39L270.31 115.92Z" fill="#407BFF"/>
<path opacity="0.3" d="M274.34 121.13L274.22 120.99C273.451 121.873 273.003 122.99 272.95 124.16C272.886 124.962 273.016 125.769 273.33 126.51L274.28 125.38C274.777 124.786 275.054 124.04 275.065 123.266C275.075 122.492 274.82 121.738 274.34 121.13V121.13Z" fill="#407BFF"/>
<path d="M237.84 42C236.053 44.6752 233.91 47.0941 231.47 49.19C230.117 50.3564 228.634 51.363 227.05 52.19C226.218 52.6164 225.356 52.9807 224.47 53.28L223.79 53.5L223.57 53.56L223.1 53.69C222.811 53.7587 222.516 53.8055 222.22 53.83C221.376 53.8946 220.528 53.8168 219.71 53.6C218.679 53.3073 217.69 52.8803 216.77 52.33C216.03 51.8972 215.312 51.4266 214.62 50.92C213.37 49.9901 212.174 48.9884 211.04 47.92C208.853 45.8475 206.845 43.5927 205.04 41.18C204.692 40.71 204.52 40.1334 204.552 39.5497C204.584 38.9659 204.819 38.4117 205.216 37.9826C205.613 37.5536 206.147 37.2765 206.727 37.1994C207.306 37.1222 207.895 37.2498 208.39 37.56H208.47C210.83 39.06 213.21 40.64 215.53 42.05C216.71 42.74 217.85 43.4401 218.98 43.9801C219.496 44.2501 220.027 44.4905 220.57 44.7C220.908 44.8495 221.271 44.9375 221.64 44.96C221.7 44.96 221.64 44.89 221.27 44.9C221.153 44.8931 221.037 44.8931 220.92 44.9L220.7 44.95L221.03 44.78C221.474 44.541 221.905 44.2772 222.32 43.99C223.215 43.3592 224.051 42.6497 224.82 41.87C226.567 40.0392 228.203 38.1058 229.72 36.08C230.551 35.1503 231.699 34.5647 232.94 34.438C234.181 34.3113 235.424 34.6527 236.425 35.3953C237.427 36.1379 238.115 37.228 238.355 38.4517C238.594 39.6755 238.368 40.9446 237.72 42.01L237.84 42Z" fill="#407BFF"/>
<path opacity="0.7" d="M237.84 42C236.053 44.6752 233.91 47.0941 231.47 49.19C230.117 50.3564 228.634 51.363 227.05 52.19C226.218 52.6164 225.356 52.9807 224.47 53.28L223.79 53.5L223.57 53.56L223.1 53.69C222.811 53.7587 222.516 53.8055 222.22 53.83C221.376 53.8946 220.528 53.8168 219.71 53.6C218.679 53.3073 217.69 52.8803 216.77 52.33C216.03 51.8972 215.312 51.4266 214.62 50.92C213.37 49.9901 212.174 48.9884 211.04 47.92C208.853 45.8475 206.845 43.5927 205.04 41.18C204.692 40.71 204.52 40.1334 204.552 39.5497C204.584 38.9659 204.819 38.4117 205.216 37.9826C205.613 37.5536 206.147 37.2765 206.727 37.1994C207.306 37.1222 207.895 37.2498 208.39 37.56H208.47C210.83 39.06 213.21 40.64 215.53 42.05C216.71 42.74 217.85 43.4401 218.98 43.9801C219.496 44.2501 220.027 44.4905 220.57 44.7C220.908 44.8495 221.271 44.9375 221.64 44.96C221.7 44.96 221.64 44.89 221.27 44.9C221.153 44.8931 221.037 44.8931 220.92 44.9L220.7 44.95L221.03 44.78C221.474 44.541 221.905 44.2772 222.32 43.99C223.215 43.3592 224.051 42.6497 224.82 41.87C226.567 40.0392 228.203 38.1058 229.72 36.08C230.551 35.1503 231.699 34.5647 232.94 34.438C234.181 34.3113 235.424 34.6527 236.425 35.3953C237.427 36.1379 238.115 37.228 238.355 38.4517C238.594 39.6755 238.368 40.9446 237.72 42.01L237.84 42Z" fill="white"/>
<path d="M201.29 35.42L202.46 37.42C202.46 37.42 203.35 40.04 205.14 40.52L210 38.95L209.75 38.54C209.13 37.6 209.2 35.77 209.41 34.25C209.62 32.73 208.84 32.68 208.26 33.06C207.849 33.5327 207.56 34.0994 207.42 34.71C207.181 34.3797 206.917 34.0688 206.63 33.78L205.15 32.3C204.84 31.9965 204.426 31.8216 203.992 31.8105C203.558 31.7994 203.136 31.9528 202.81 32.24L201.61 33.31C201.325 33.5733 201.139 33.9255 201.08 34.3089C201.022 34.6923 201.096 35.0841 201.29 35.42V35.42Z" fill="#407BFF"/>
<path opacity="0.7" d="M201.29 35.42L202.46 37.42C202.46 37.42 203.35 40.04 205.14 40.52L210 38.95L209.75 38.54C209.13 37.6 209.2 35.77 209.41 34.25C209.62 32.73 208.84 32.68 208.26 33.06C207.849 33.5327 207.56 34.0994 207.42 34.71C207.181 34.3797 206.917 34.0688 206.63 33.78L205.15 32.3C204.84 31.9965 204.426 31.8216 203.992 31.8105C203.558 31.7994 203.136 31.9528 202.81 32.24L201.61 33.31C201.325 33.5733 201.139 33.9255 201.08 34.3089C201.022 34.6923 201.096 35.0841 201.29 35.42V35.42Z" fill="white"/>
<path d="M246.67 28.22C241.279 29.6488 236.116 31.8267 231.33 34.69C230.583 35.1572 229.997 35.8416 229.651 36.6512C229.304 37.4609 229.213 38.3572 229.39 39.22C231.32 48.66 235.71 61.3 240.45 69.35L262.56 60.2C262.71 56.3 257.34 43.68 251.87 31.48C250.89 29.29 249 27.66 246.67 28.22Z" fill="#407BFF"/>
<path opacity="0.8" d="M246.67 28.22C241.279 29.6488 236.116 31.8267 231.33 34.69C230.583 35.1572 229.997 35.8416 229.651 36.6512C229.304 37.4609 229.213 38.3572 229.39 39.22C231.32 48.66 235.71 61.3 240.45 69.35L262.56 60.2C262.71 56.3 257.34 43.68 251.87 31.48C250.89 29.29 249 27.66 246.67 28.22Z" fill="white"/>
<path opacity="0.3" d="M255.3 39.21L250.91 37.74C251.91 40.31 255.44 43.56 257.91 45.47C257.11 43.47 256.22 41.37 255.3 39.21Z" fill="#407BFF"/>
<path d="M245.22 18.32C243.39 14.84 239.44 13.09 234.7 13.48C230.7 13.82 227.16 17.9 227.58 20.1C228 22.3 231.36 23.24 232 24L229.23 26C228.902 26.2369 228.625 26.5376 228.416 26.8843C228.207 27.2309 228.071 27.6162 228.015 28.017C227.959 28.4178 227.984 28.8258 228.09 29.2164C228.196 29.607 228.379 29.9722 228.63 30.29C229.8 31.77 231.34 33.29 232.23 34.41C239.89 34.21 245.56 31.29 247.61 28.48C246.84 24.92 247 21.78 245.22 18.32Z" fill="#407BFF"/>
<path opacity="0.8" d="M245.22 18.32C243.39 14.84 239.44 13.09 234.7 13.48C230.7 13.82 227.16 17.9 227.58 20.1C228 22.3 231.36 23.24 232 24L229.23 26C228.902 26.2369 228.625 26.5376 228.416 26.8843C228.207 27.2309 228.071 27.6162 228.015 28.017C227.959 28.4178 227.984 28.8258 228.09 29.2164C228.196 29.607 228.379 29.9722 228.63 30.29C229.8 31.77 231.34 33.29 232.23 34.41C239.89 34.21 245.56 31.29 247.61 28.48C246.84 24.92 247 21.78 245.22 18.32Z" fill="white"/>
<path d="M241.46 20.48C242.004 21.8746 242.122 23.3991 241.799 24.8609C241.477 26.3226 240.728 27.6559 239.648 28.6923C238.568 29.7286 237.205 30.4215 235.731 30.6833C234.257 30.9451 232.739 30.7641 231.368 30.1632C229.997 29.5623 228.835 28.5684 228.029 27.3072C227.223 26.046 226.809 24.574 226.839 23.0775C226.869 21.5809 227.342 20.1269 228.198 18.8992C229.055 17.6714 230.256 16.7252 231.65 16.18C233.521 15.451 235.605 15.4944 237.445 16.3006C239.284 17.1068 240.728 18.61 241.46 20.48V20.48Z" fill="#263238"/>
<path d="M306.39 110.6C306.28 107.31 306.13 107.6 306.04 104.83C305.98 103.13 305.97 101.24 305.96 99.61C305.957 98.8359 305.686 98.0867 305.194 97.4891C304.702 96.8914 304.019 96.482 303.26 96.33C301.94 96.06 300.61 95.81 299.26 95.53C297.53 95.16 295.82 94.76 294.13 94.27C292.81 93.89 291.51 93.47 290.22 93C288.93 92.53 287.48 92 286.14 91.38C284.56 90.71 283 89.99 281.46 89.24C279.73 88.42 278.02 87.56 276.31 86.69C269.73 75.8 269.59 68.62 262.53 60.2L247.37 67.06C247.37 67.06 258.51 86.82 266.09 95.2C270.46 100.02 277.31 102.2 283.42 103.78C287.83 104.91 292.3 105.78 296.77 106.61C298.51 106.93 300.4 107.05 301.9 108.09C303.01 108.941 303.771 110.168 304.04 111.54C304.107 111.82 304.167 112.1 304.22 112.38C304.41 113.22 306.46 112.58 306.39 110.6Z" fill="#407BFF"/>
<path opacity="0.8" d="M306.39 110.6C306.28 107.31 306.13 107.6 306.04 104.83C305.98 103.13 305.97 101.24 305.96 99.61C305.957 98.8359 305.686 98.0867 305.194 97.4891C304.702 96.8914 304.019 96.482 303.26 96.33C301.94 96.06 300.61 95.81 299.26 95.53C297.53 95.16 295.82 94.76 294.13 94.27C292.81 93.89 291.51 93.47 290.22 93C288.93 92.53 287.48 92 286.14 91.38C284.56 90.71 283 89.99 281.46 89.24C279.73 88.42 278.02 87.56 276.31 86.69C269.73 75.8 269.59 68.62 262.53 60.2L247.37 67.06C247.37 67.06 258.51 86.82 266.09 95.2C270.46 100.02 277.31 102.2 283.42 103.78C287.83 104.91 292.3 105.78 296.77 106.61C298.51 106.93 300.4 107.05 301.9 108.09C303.01 108.941 303.771 110.168 304.04 111.54C304.107 111.82 304.167 112.1 304.22 112.38C304.41 113.22 306.46 112.58 306.39 110.6Z" fill="white"/>
<path opacity="0.3" d="M298.7 95.4C298.1 95.27 297.5 95.14 296.89 94.99C296.94 98.45 295.32 104.41 294.73 106.22L296.63 106.58C297.875 102.978 298.573 99.2092 298.7 95.4V95.4Z" fill="#407BFF"/>
<path opacity="0.3" d="M306 99.61C305.997 98.8374 305.728 98.0893 305.238 97.4919C304.748 96.8944 304.067 96.4841 303.31 96.33L302.31 96.14C302.471 97.2768 303.052 98.3118 303.94 99.04C304.511 99.5678 305.195 99.9577 305.94 100.18C306 100 306 99.8 306 99.61Z" fill="#407BFF"/>
<path d="M240.05 20.54C240.45 22.06 238.75 23.65 237.4 22.34C236.14 20.989 234.761 19.754 233.28 18.65C231.89 17.78 233.74 16.26 235.93 16.85C236.865 17.0847 237.728 17.5433 238.446 18.1862C239.163 18.829 239.714 19.6369 240.05 20.54V20.54Z" fill="white"/>
<path d="M240.16 68.86C239.46 69.12 240.74 70.32 240.74 70.32C240.74 70.32 254.74 65.53 263.24 60.6C263.261 60.3016 263.21 60.0025 263.091 59.7277C262.973 59.4529 262.791 59.2103 262.56 59.02C255.285 62.7206 247.807 66.0059 240.16 68.86V68.86Z" fill="#407BFF"/>
<path opacity="0.5" d="M240.16 68.86C239.46 69.12 240.74 70.32 240.74 70.32C240.74 70.32 254.74 65.53 263.24 60.6C263.261 60.3016 263.21 60.0025 263.091 59.7277C262.973 59.4529 262.791 59.2103 262.56 59.02C255.285 62.7206 247.807 66.0059 240.16 68.86V68.86Z" fill="white"/>
<path d="M250.46 27.56C253.22 28.96 255.81 30.43 258.46 32.06C259.75 32.88 261.03 33.71 262.3 34.61C263.57 35.51 264.83 36.43 266.1 37.47L266.57 37.86L267.16 38.4C267.512 38.7146 267.845 39.0484 268.16 39.4C268.48 39.75 268.75 40.09 269.01 40.4C269.27 40.71 269.55 41.08 269.78 41.4C270.712 42.6856 271.573 44.0209 272.36 45.4C273.91 48.0744 275.247 50.8663 276.36 53.75C276.566 54.2948 276.576 54.8941 276.39 55.4459C276.204 55.9977 275.832 56.468 275.338 56.7768C274.845 57.0855 274.259 57.2137 273.682 57.1396C273.104 57.0654 272.57 56.7935 272.17 56.37L272.12 56.31C270.12 54.18 268.19 51.94 266.25 49.85C264.31 47.76 262.34 45.64 260.71 44.71C258.44 43.3 255.91 41.89 253.4 40.51L245.84 36.31C244.668 35.6894 243.79 34.6285 243.4 33.3608C243.01 32.093 243.139 30.7223 243.76 29.55C244.381 28.3777 245.441 27.5 246.709 27.11C247.977 26.7199 249.348 26.8494 250.52 27.47L250.46 27.56Z" fill="#407BFF"/>
<path opacity="0.8" d="M250.46 27.56C253.22 28.96 255.81 30.43 258.46 32.06C259.75 32.88 261.03 33.71 262.3 34.61C263.57 35.51 264.83 36.43 266.1 37.47L266.57 37.86L267.16 38.4C267.512 38.7146 267.845 39.0484 268.16 39.4C268.48 39.75 268.75 40.09 269.01 40.4C269.27 40.71 269.55 41.08 269.78 41.4C270.712 42.6856 271.573 44.0209 272.36 45.4C273.91 48.0744 275.247 50.8663 276.36 53.75C276.566 54.2948 276.576 54.8941 276.39 55.4459C276.204 55.9977 275.832 56.468 275.338 56.7768C274.845 57.0855 274.259 57.2137 273.682 57.1396C273.104 57.0654 272.57 56.7935 272.17 56.37L272.12 56.31C270.12 54.18 268.19 51.94 266.25 49.85C264.31 47.76 262.34 45.64 260.71 44.71C258.44 43.3 255.91 41.89 253.4 40.51L245.84 36.31C244.668 35.6894 243.79 34.6285 243.4 33.3608C243.01 32.093 243.139 30.7223 243.76 29.55C244.381 28.3777 245.441 27.5 246.709 27.11C247.977 26.7199 249.348 26.8494 250.52 27.47L250.46 27.56Z" fill="white"/>
<path d="M278.73 58.74L277.88 56.61C277.88 56.61 277.41 53.89 275.72 53.13L270.72 53.92L270.89 54.36C271.35 55.36 271 57.19 270.55 58.65C270.1 60.11 270.86 60.3 271.5 60.01C271.86 59.85 272.21 59.2 272.59 58.51C272.776 58.8576 272.987 59.1918 273.22 59.51L274.45 61.2C274.707 61.5502 275.087 61.7902 275.514 61.8718C275.94 61.9535 276.382 61.8706 276.75 61.64L278.11 60.77C278.428 60.5522 278.663 60.2325 278.776 59.8637C278.888 59.4948 278.872 59.0985 278.73 58.74V58.74Z" fill="#407BFF"/>
<path opacity="0.8" d="M278.73 58.74L277.88 56.61C277.88 56.61 277.41 53.89 275.72 53.13L270.72 53.92L270.89 54.36C271.35 55.36 271 57.19 270.55 58.65C270.1 60.11 270.86 60.3 271.5 60.01C271.86 59.85 272.21 59.2 272.59 58.51C272.776 58.8576 272.987 59.1918 273.22 59.51L274.45 61.2C274.707 61.5502 275.087 61.7902 275.514 61.8718C275.94 61.9535 276.382 61.8706 276.75 61.64L278.11 60.77C278.428 60.5522 278.663 60.2325 278.776 59.8637C278.888 59.4948 278.872 59.0985 278.73 58.74V58.74Z" fill="white"/>
<path opacity="0.3" d="M246.24 39.0601L245.02 39.1601L237.53 57.2401C237.939 57.2695 238.351 57.2358 238.75 57.1401C238.75 57.1401 248.51 53.5001 251.46 52.1401C249.48 48.0501 246.24 39.0601 246.24 39.0601Z" fill="#407BFF"/>
<path d="M232.57 43.8C233.48 48.5262 235.17 53.0682 237.57 57.24C241.23 55.98 247.33 53.6 250.29 52.24C248.3 47.975 246.535 43.609 245 39.16C241.87 39.37 235 42 232.57 43.8Z" fill="white"/>
<path opacity="0.3" d="M240 47.71C239.854 48.199 239.566 48.6337 239.173 48.959C238.779 49.2843 238.298 49.4857 237.791 49.5376C237.283 49.5895 236.771 49.4897 236.32 49.2507C235.869 49.0117 235.499 48.6443 235.257 48.195C235.015 47.7457 234.911 47.2347 234.96 46.7266C235.008 46.2184 235.206 45.7361 235.529 45.3405C235.851 44.945 236.284 44.654 236.772 44.5043C237.26 44.3547 237.781 44.3532 238.27 44.5C238.925 44.6966 239.475 45.1451 239.799 45.747C240.124 46.3489 240.196 47.0549 240 47.71V47.71Z" fill="#407BFF"/>
<path opacity="0.6" d="M241.91 44.2699C241.871 44.4369 241.782 44.5881 241.656 44.7038C241.53 44.8195 241.371 44.8943 241.201 44.9183C241.032 44.9423 240.859 44.9145 240.705 44.8384C240.551 44.7623 240.424 44.6416 240.341 44.492C240.257 44.3424 240.22 44.1711 240.236 44.0003C240.251 43.8296 240.318 43.6675 240.427 43.5354C240.536 43.4032 240.683 43.3072 240.847 43.2598C241.012 43.2124 241.187 43.216 241.35 43.2699C241.553 43.3347 241.723 43.474 241.827 43.6596C241.931 43.8452 241.961 44.0633 241.91 44.2699Z" fill="#407BFF"/>
<path opacity="0.6" d="M244.15 43.4001C244.127 43.5161 244.079 43.6259 244.011 43.7225C243.942 43.8191 243.855 43.9004 243.753 43.9611C243.651 44.0218 243.538 44.0607 243.421 44.0751C243.303 44.0896 243.184 44.0793 243.071 44.0451C242.958 44.0108 242.853 43.9533 242.763 43.8761C242.673 43.799 242.6 43.7039 242.55 43.5971C242.499 43.4902 242.471 43.3739 242.467 43.2556C242.464 43.1373 242.485 43.0196 242.53 42.9101C242.562 42.8042 242.615 42.7058 242.685 42.6203C242.755 42.5349 242.841 42.4641 242.939 42.4121C243.036 42.36 243.143 42.3278 243.253 42.3171C243.363 42.3065 243.474 42.3177 243.58 42.3501C243.794 42.4149 243.974 42.5615 244.081 42.758C244.187 42.9546 244.212 43.1852 244.15 43.4001V43.4001Z" fill="#407BFF"/>
<path opacity="0.5" d="M247.29 51.19L238.04 54.84L237.49 53.02L246.73 49.37L247.29 51.19Z" fill="#407BFF"/>
<path opacity="0.2" d="M196.26 190.17C196.239 195.993 195.676 201.801 194.58 207.52C193.4 212.66 191.567 216.42 189.08 218.8C187.922 219.95 186.546 220.858 185.034 221.47C183.521 222.083 181.902 222.389 180.27 222.37C175.13 222.37 171.207 219.567 168.5 213.96C168.024 212.953 167.62 211.914 167.29 210.85C161.574 215.76 156.251 221.109 151.37 226.85L146.06 233.11C148.918 236.006 152.215 238.433 155.83 240.3C162.057 243.52 170.23 245.133 180.35 245.14C182.13 245.14 183.85 245.09 185.52 244.99C191.643 235.931 196.709 226.201 200.62 215.99L215.47 177.27L196.26 190.17Z" fill="black"/>
<path d="M62.39 243L79.89 260.5L128.89 214.33C112 207.88 79.16 226.19 62.39 243Z" fill="#263238"/>
<path d="M123.42 304C117.83 298.4 105.92 286.5 105.92 286.5L152.09 237.5C158.5 254.35 140.19 287.22 123.42 304Z" fill="#263238"/>
<path d="M190.4 193.7L209.49 156.89L172.68 176C160.856 182.132 149.939 189.872 140.24 199L77.49 258.07L108.32 288.9L167.39 226.15C176.522 216.448 184.266 205.528 190.4 193.7V193.7Z" fill="#407BFF"/>
<path opacity="0.6" d="M190.4 193.7L209.49 156.89L172.68 176C160.856 182.132 149.939 189.872 140.24 199L77.49 258.07L108.32 288.9L167.39 226.15C176.522 216.448 184.266 205.528 190.4 193.7V193.7Z" fill="white"/>
<path d="M151.2 228.08C158.324 228.08 164.1 222.304 164.1 215.18C164.1 208.056 158.324 202.28 151.2 202.28C144.076 202.28 138.3 208.056 138.3 215.18C138.3 222.304 144.076 228.08 151.2 228.08Z" fill="white"/>
<path d="M151.2 223.47C155.778 223.47 159.49 219.758 159.49 215.18C159.49 210.602 155.778 206.89 151.2 206.89C146.622 206.89 142.91 210.602 142.91 215.18C142.91 219.758 146.622 223.47 151.2 223.47Z" fill="#407BFF"/>
<path opacity="0.3" d="M118.75 277.82L88.56 247.63L113.28 224.37L142.01 253.11L118.75 277.82Z" fill="#407BFF"/>
<path d="M69.22 270.62C46.62 272.45 39.13 286.92 36.57 306.15C35.27 315.96 34.69 325.89 26.46 331.63C25.9649 331.967 25.5921 332.454 25.3975 333.02C25.2029 333.587 25.1969 334.2 25.3805 334.77C25.564 335.34 25.9272 335.835 26.4157 336.181C26.9041 336.527 27.4916 336.706 28.09 336.69C58.43 335.74 72.58 320.89 74.36 314.69C73.8928 317.931 73.0574 321.108 71.87 324.16C71.6517 324.699 71.609 325.292 71.7479 325.856C71.8867 326.421 72.2001 326.927 72.6434 327.302C73.0867 327.678 73.6372 327.904 74.2166 327.949C74.7959 327.993 75.3746 327.854 75.87 327.55C84.38 322.22 95.06 312.4 95.77 296.47C89.51 287.6 69.22 270.62 69.22 270.62Z" fill="#407BFF"/>
<path opacity="0.2" d="M69.22 270.62C46.62 272.45 39.13 286.92 36.57 306.15C35.27 315.96 34.69 325.89 26.46 331.63C25.9649 331.967 25.5921 332.454 25.3975 333.02C25.2029 333.587 25.1969 334.2 25.3805 334.77C25.564 335.34 25.9272 335.835 26.4157 336.181C26.9041 336.527 27.4916 336.706 28.09 336.69C58.43 335.74 72.58 320.89 74.36 314.69C73.8928 317.931 73.0574 321.108 71.87 324.16C71.6517 324.699 71.609 325.292 71.7479 325.856C71.8867 326.421 72.2001 326.927 72.6434 327.302C73.0867 327.678 73.6372 327.904 74.2166 327.949C74.7959 327.993 75.3746 327.854 75.87 327.55C84.38 322.22 95.06 312.4 95.77 296.47C89.51 287.6 69.22 270.62 69.22 270.62Z" fill="white"/>
<path d="M99.28 303.3L63.08 267.1L82.36 262.93L103.45 284.02L99.28 303.3Z" fill="#407BFF"/>
</svg>
