<svg width="332" height="67" viewBox="0 0 332 67" fill="none" xmlns="http://www.w3.org/2000/svg">
<path d="M37.504 33.968C41.2587 34.848 44.2213 36.6667 46.392 39.424C48.6213 42.1813 49.736 45.3787 49.736 49.016C49.736 54.3547 47.9467 58.52 44.368 61.512C40.848 64.504 35.7733 66 29.144 66H0.192001V3.784H28.44C34.776 3.784 39.6747 5.16267 43.136 7.92C46.5973 10.6773 48.328 14.608 48.328 19.712C48.328 23.4667 47.3307 26.6053 45.336 29.128C43.3413 31.592 40.7307 33.2053 37.504 33.968ZM15.24 29.216H25.096C30.3173 29.216 32.928 26.9867 32.928 22.528C32.928 18.0693 30.2587 15.84 24.92 15.84H15.24V29.216ZM25.976 53.768C31.5493 53.768 34.336 51.48 34.336 46.904C34.336 44.6747 33.6027 42.944 32.136 41.712C30.6693 40.4213 28.5867 39.776 25.888 39.776H15.24V53.768H25.976Z" fill="#1E293B"/>
<path d="M80.6522 16.28C85.5215 16.28 89.8629 17.3067 93.6762 19.36C97.5482 21.3547 100.57 24.2587 102.74 28.072C104.97 31.8853 106.084 36.344 106.084 41.448C106.084 46.552 104.97 51.0107 102.74 54.824C100.57 58.6373 97.5482 61.5707 93.6762 63.624C89.8629 65.6187 85.5215 66.616 80.6522 66.616C75.7829 66.616 71.4122 65.6187 67.5402 63.624C63.6682 61.5707 60.6175 58.6373 58.3882 54.824C56.2175 51.0107 55.1322 46.552 55.1322 41.448C55.1322 36.344 56.2175 31.8853 58.3882 28.072C60.6175 24.2587 63.6682 21.3547 67.5402 19.36C71.4122 17.3067 75.7829 16.28 80.6522 16.28ZM80.6522 29.304C77.7775 29.304 75.3429 30.36 73.3482 32.472C71.4122 34.5253 70.4442 37.5173 70.4442 41.448C70.4442 45.3787 71.4122 48.3707 73.3482 50.424C75.3429 52.4773 77.7775 53.504 80.6522 53.504C83.5269 53.504 85.9322 52.4773 87.8682 50.424C89.8042 48.3707 90.7722 45.3787 90.7722 41.448C90.7722 37.5173 89.8042 34.5253 87.8682 32.472C85.9322 30.36 83.5269 29.304 80.6522 29.304Z" fill="#1E293B"/>
<path d="M128.935 0.880005V66H113.887V0.880005H128.935Z" fill="#1E293B"/>
<path d="M157.981 16.28C161.735 16.28 164.962 17.1307 167.661 18.832C170.359 20.5333 172.354 22.8507 173.645 25.784V16.896H188.605V66H173.645V57.112C172.354 60.0453 170.359 62.3627 167.661 64.064C164.962 65.7653 161.735 66.616 157.981 66.616C153.933 66.616 150.295 65.6187 147.069 63.624C143.901 61.5707 141.378 58.6373 139.501 54.824C137.682 51.0107 136.773 46.552 136.773 41.448C136.773 36.2853 137.682 31.8267 139.501 28.072C141.378 24.2587 143.901 21.3547 147.069 19.36C150.295 17.3067 153.933 16.28 157.981 16.28ZM162.821 29.48C159.594 29.48 156.983 30.536 154.989 32.648C153.053 34.76 152.085 37.6933 152.085 41.448C152.085 45.2027 153.053 48.136 154.989 50.248C156.983 52.36 159.594 53.416 162.821 53.416C165.989 53.416 168.57 52.3307 170.565 50.16C172.618 47.9893 173.645 45.0853 173.645 41.448C173.645 37.752 172.618 34.848 170.565 32.736C168.57 30.5653 165.989 29.48 162.821 29.48Z" fill="#1E293B"/>
<path d="M230.117 16.368C235.749 16.368 240.208 18.2453 243.493 22C246.837 25.7547 248.509 30.9173 248.509 37.488V66H233.461V39.248C233.461 35.9627 232.581 33.4107 230.821 31.592C229.12 29.7147 226.832 28.776 223.957 28.776C220.907 28.776 218.472 29.744 216.653 31.68C214.893 33.616 214.013 36.3733 214.013 39.952V66H198.965V16.896H214.013V25.872C215.421 22.9387 217.504 20.6213 220.261 18.92C223.077 17.2187 226.363 16.368 230.117 16.368Z" fill="#1E293B"/>
<path d="M277.09 16.28C280.845 16.28 284.072 17.1307 286.77 18.832C289.469 20.5333 291.434 22.8507 292.666 25.784V0.880005H307.714V66H292.666V57.112C291.434 60.0453 289.469 62.3627 286.77 64.064C284.072 65.7653 280.845 66.616 277.09 66.616C273.042 66.616 269.405 65.6187 266.178 63.624C263.01 61.5707 260.488 58.6373 258.61 54.824C256.792 51.0107 255.882 46.552 255.882 41.448C255.882 36.2853 256.792 31.8267 258.61 28.072C260.488 24.2587 263.01 21.3547 266.178 19.36C269.405 17.3067 273.042 16.28 277.09 16.28ZM281.93 29.48C278.704 29.48 276.093 30.536 274.098 32.648C272.162 34.76 271.194 37.6933 271.194 41.448C271.194 45.2027 272.162 48.136 274.098 50.248C276.093 52.36 278.704 53.416 281.93 53.416C285.098 53.416 287.68 52.3307 289.674 50.16C291.728 47.9893 292.754 45.0853 292.754 41.448C292.754 37.752 291.728 34.848 289.674 32.736C287.68 30.5653 285.098 29.48 281.93 29.48Z" fill="#1E293B"/>
<path d="M331.011 50.952V66H315.435V50.952H331.011Z" fill="#1E293B"/>
</svg>
